<svg xmlns="http://www.w3.org/2000/svg" version="1.1" xmlns:xlink="http://www.w3.org/1999/xlink" xmlns:svgjs="http://svgjs.com/svgjs" width="150.000000pt" height="150.000000pt"><svg version="1.0" xmlns="http://www.w3.org/2000/svg" width="150.000000pt" height="150.000000pt" viewBox="0 0 150.000000 150.000000" preserveAspectRatio="xMidYMid meet">

<g transform="translate(0.000000,150.000000) scale(0.100000,-0.100000)" fill="#000000" stroke="none">
<path d="M810 1328 c0 -7 6 -46 14 -85 14 -73 14 -73 -8 -73 -12 0 -27 -5 -34
-12 -15 -15 -16 -72 -2 -99 12 -21 50 -25 68 -7 9 9 15 8 26 -8 22 -29 31 -9
17 38 -7 23 -19 86 -27 141 -7 54 -16 103 -19 108 -9 13 -35 11 -35 -3z m16
-243 c-9 -23 -26 -9 -26 23 0 24 1 25 16 10 10 -9 14 -24 10 -33z"></path>
<path d="M661 1271 c-19 -12 -6 -43 16 -39 10 2 18 12 18 22 0 22 -14 29 -34
17z"></path>
<path d="M244 1203 c14 -101 19 -216 9 -210 -13 8 -40 105 -49 175 -5 40 -11
52 -24 52 -15 0 -18 -17 -23 -152 -3 -84 -9 -165 -13 -180 -6 -25 -4 -28 20
-28 l26 0 1 98 0 97 17 -45 c14 -36 23 -46 45 -48 43 -5 53 29 38 135 -14 102
-28 153 -43 153 -7 0 -8 -16 -4 -47z"></path>
<path d="M973 1205 c-49 -34 -53 -131 -7 -162 20 -13 29 -13 54 -3 33 14 50
37 43 58 -4 10 -13 6 -32 -12 -18 -17 -34 -24 -44 -20 -23 8 -21 24 2 24 30 0
51 28 51 69 0 57 -26 75 -67 46z m37 -45 c0 -20 -25 -38 -36 -27 -8 7 15 47
26 47 6 0 10 -9 10 -20z"></path>
<path d="M1109 1187 c-31 -16 -38 -47 -11 -47 11 0 23 6 26 13 3 8 9 6 20 -7
22 -27 20 -33 -14 -39 -38 -8 -68 -51 -50 -72 18 -22 61 -18 93 10 30 27 33
50 13 100 -18 43 -44 58 -77 42z m40 -128 c-8 -5 -21 -9 -29 -9 -12 1 -11 4 4
15 10 8 23 12 29 8 5 -3 3 -9 -4 -14z"></path>
<path d="M1249 1177 c-19 -12 -35 -33 -37 -45 -3 -22 4 -26 45 -23 25 2 36
-11 27 -33 -4 -11 -14 -14 -35 -9 -22 4 -29 2 -29 -10 0 -24 36 -40 60 -27 57
30 58 91 3 105 l-28 7 35 29 c29 25 31 29 14 29 -12 0 -36 -10 -55 -23z"></path>
<path d="M665 1179 c-9 -14 24 -151 41 -168 23 -25 27 -5 11 65 -9 37 -13 72
-11 76 6 10 -14 38 -27 38 -4 0 -11 -5 -14 -11z"></path>
<path d="M343 1138 c-32 -36 -37 -66 -17 -109 29 -66 82 -65 117 2 44 85 -39
173 -100 107z m75 -50 c6 -77 -40 -107 -58 -38 -13 50 1 83 33 78 17 -2 23
-11 25 -40z"></path>
<path d="M913 874 c-3 -8 -1 -20 5 -26 16 -16 42 -2 42 22 0 24 -38 28 -47 4z"></path>
<path d="M1388 860 c-9 -6 -24 -31 -34 -57 l-18 -46 -11 34 c-7 19 -19 35 -28
37 -20 4 -22 -15 -6 -55 7 -15 15 -44 18 -63 5 -26 11 -35 26 -35 14 0 22 10
28 35 15 63 29 105 41 119 9 11 12 1 16 -44 7 -77 26 -83 35 -12 10 82 -16
116 -67 87z"></path>
<path d="M501 834 c-22 -28 -37 -116 -28 -170 5 -27 2 -36 -14 -44 -27 -15
-24 -39 6 -50 14 -5 25 -17 25 -27 0 -27 31 -147 41 -157 19 -21 30 10 15 45
-7 19 -19 68 -26 109 l-13 74 39 32 c43 36 39 58 -6 32 -20 -11 -30 -13 -33
-5 -7 21 9 127 21 139 9 9 12 9 12 0 0 -14 36 -16 45 -2 7 12 -30 50 -49 50
-8 0 -24 -11 -35 -26z"></path>
<path d="M1070 820 c-41 -41 -54 -126 -24 -168 21 -31 68 -29 100 3 21 21 32
24 58 19 28 -5 37 -1 55 21 27 35 27 65 0 99 -26 34 -41 33 -84 -5 -26 -24
-35 -39 -35 -63 0 -32 -25 -66 -48 -66 -15 0 -32 33 -32 62 0 31 36 88 55 88
8 0 15 7 15 15 0 22 -37 18 -60 -5z m168 -70 c4 -37 -7 -53 -30 -45 -9 4 -14
17 -13 34 3 59 38 68 43 11z"></path>
<path d="M206 823 c-4 -4 -16 -28 -27 -53 -11 -25 -40 -78 -65 -117 -25 -40
-42 -77 -39 -83 9 -14 46 -12 75 5 39 22 42 19 38 -37 -3 -47 -1 -53 17 -53
16 0 20 7 21 35 1 96 2 97 43 113 39 16 58 33 47 44 -3 3 -23 -2 -45 -11 l-41
-16 7 90 c5 76 4 90 -9 90 -8 0 -18 -3 -22 -7z m-3 -132 c-5 -48 -9 -54 -45
-72 l-40 -20 27 43 c14 24 33 58 42 75 9 18 18 31 20 30 1 -2 0 -27 -4 -56z"></path>
<path d="M957 728 c1 -51 2 -97 2 -101 1 -5 11 -7 24 -5 15 2 21 9 20 23 -2
11 -6 49 -9 85 -6 60 -17 90 -33 90 -3 0 -5 -42 -4 -92z"></path>
<path d="M754 770 c-8 -8 -4 -32 12 -80 12 -37 25 -82 29 -100 5 -24 11 -30
28 -28 26 4 55 88 56 163 1 67 -16 48 -36 -40 -17 -75 -23 -73 -43 15 -18 78
-18 80 -28 80 -4 0 -13 -5 -18 -10z"></path>
<path d="M620 740 c-24 -24 -25 -39 -4 -47 10 -4 22 1 29 10 17 24 22 21 29
-15 5 -28 2 -35 -29 -61 -37 -30 -45 -61 -19 -71 9 -4 29 1 43 11 14 9 33 17
41 18 9 0 14 8 14 20 -3 42 -25 129 -35 142 -16 19 -46 16 -69 -7z"></path>
<path d="M1290 535 c-47 -12 -64 -37 -34 -49 21 -8 104 31 104 50 0 16 -8 16
-70 -1z"></path>
<path d="M1194 464 c-4 -16 -22 -85 -40 -154 -17 -69 -30 -128 -27 -132 2 -5
13 -8 24 -8 14 0 19 7 19 25 0 14 11 82 26 152 17 84 22 129 15 136 -7 7 -12
0 -17 -19z"></path>
<path d="M947 375 c-41 -100 -95 -178 -147 -213 -40 -27 -45 -46 -14 -50 46
-7 151 136 185 250 31 106 18 113 -24 13z"></path>
<path d="M797 423 c-15 -14 -5 -30 32 -51 46 -26 51 -27 51 -8 0 14 -54 66
-69 66 -4 0 -11 -3 -14 -7z"></path>
<path d="M715 360 c-3 -5 -3 -15 0 -20 7 -11 68 -44 103 -54 36 -12 27 22 -10
37 -18 8 -39 21 -47 30 -15 19 -37 22 -46 7z"></path>
<path d="M1000 362 c0 -8 35 -84 73 -161 14 -28 37 -40 37 -19 0 7 -16 52 -36
101 -28 65 -41 87 -55 87 -11 0 -19 -4 -19 -8z"></path>
<path d="M336 291 c-45 -45 -53 -71 -22 -71 7 0 28 21 47 48 50 69 52 72 37
72 -8 0 -35 -22 -62 -49z"></path>
<path d="M426 312 c-3 -5 16 -51 42 -103 26 -52 52 -109 59 -127 12 -34 33
-44 33 -14 0 19 -29 97 -74 195 -23 52 -46 71 -60 49z"></path>
<path d="M673 293 c-3 -10 -23 -58 -45 -108 -43 -102 -45 -115 -19 -115 13 0
22 11 29 38 6 20 22 72 35 114 15 44 21 80 16 84 -5 3 -12 -3 -16 -13z"></path>
</g>
</svg><style>@media (prefers-color-scheme: light) { :root { filter: none; } }
@media (prefers-color-scheme: dark) { :root { filter: contrast(0.3846153846153846) brightness(4.5); } }
</style></svg>